<?xml version="1.0" encoding="utf-8"?>
<!-- Generator: Adobe Illustrator 15.1.0, SVG Export Plug-In . SVG Version: 6.00 Build 0)  -->
<!DOCTYPE svg PUBLIC "-//W3C//DTD SVG 1.1//EN" "http://www.w3.org/Graphics/SVG/1.1/DTD/svg11.dtd">
<svg version="1.1" id="Layer_1" xmlns="http://www.w3.org/2000/svg" xmlns:xlink="http://www.w3.org/1999/xlink" x="0px" y="0px"
	 width="66.646px" height="14.513px" viewBox="0 0 66.646 14.513" enable-background="new 0 0 66.646 14.513" xml:space="preserve">
<path fill="#FFFFFF" d="M52.677,5.468h4.72l1.459-4.491l1.459,4.491h4.72L61.22,8.245l1.459,4.491l-3.823-2.777l-3.823,2.777
	l1.459-4.491L52.677,5.468z"/>
<g>
	<path fill="#ED1C24" d="M1.837,5.468h4.72l1.459-4.491l1.459,4.491h4.72L10.38,8.245l1.459,4.491L8.016,9.959l-3.823,2.777
		l1.459-4.491L1.837,5.468z"/>
	<path fill="#ED1C24" d="M14.547,5.468h4.72l1.459-4.491l1.459,4.491h4.72L23.09,8.245l1.459,4.491l-3.823-2.777l-3.823,2.777
		l1.459-4.491L14.547,5.468z"/>
	<path fill="#ED1C24" d="M27.257,5.468h4.72l1.459-4.491l1.459,4.491h4.72L35.8,8.245l1.459,4.491l-3.823-2.777l-3.823,2.777
		l1.459-4.491L27.257,5.468z"/>
	<path fill="#ED1C24" d="M39.967,5.468h4.72l1.459-4.491l1.459,4.491h4.72L48.51,8.245l1.459,4.491l-3.823-2.777l-3.823,2.777
		l1.459-4.491L39.967,5.468z"/>
	<path fill="#ED1C24" d="M58.855,9.959l-3.823,2.777l1.459-4.491l-3.814-2.777h4.72l1.459-4.491V9.959z"/>
</g>
</svg>
