<?xml version="1.0" encoding="utf-8"?>
<!-- Generator: Adobe Illustrator 16.0.0, SVG Export Plug-In . SVG Version: 6.00 Build 0)  -->
<!DOCTYPE svg PUBLIC "-//W3C//DTD SVG 1.1//EN" "http://www.w3.org/Graphics/SVG/1.1/DTD/svg11.dtd">
<svg version="1.1" id="Layer_1" xmlns="http://www.w3.org/2000/svg" xmlns:xlink="http://www.w3.org/1999/xlink" x="0px" y="0px"
	 width="768px" height="72px" viewBox="0 0 768 72" enable-background="new 0 0 768 72" xml:space="preserve">
<g>
	<path fill="#231F20" d="M204.528,48.27c0,3.516,1.625,4.422,5.654,4.422h2.795c4.94,0,7.15-3.121,11.831-11.506h2.275
		l-2.275,14.105h-35.037v-2.275c4.551-0.52,5.2-0.91,5.2-4.48V16.419c0-3.575-0.649-3.965-5.2-4.485V9.659h19.956v2.275
		c-4.55,0.52-5.199,0.91-5.199,4.485V48.27L204.528,48.27z"/>
	<path fill="#231F20" d="M242.357,50.285c0,2.275,1.04,2.666,4.097,2.859v2.146h-17.161v-2.146c3.055-0.193,4.095-0.584,4.095-2.859
		V27.274l-3.899-2.275v-1.235l11.439-3.575h1.43V50.285L242.357,50.285z M232.478,11.154c0-2.795,2.146-5.135,5.267-5.135
		c3.185,0,5.33,2.34,5.33,5.135c0,2.73-2.146,5.135-5.33,5.135C234.623,16.289,232.478,13.884,232.478,11.154z"/>
	<path fill="#231F20" d="M260.622,20.839h8.45v2.99h-8.45v21.517c0,3.965,1.495,5.653,4.55,5.653c1.82,0,3.25-0.584,4.875-1.819
		l0.78,1.17c-2.08,3.25-5.33,5.592-10.012,5.592c-5.33,0-9.229-2.797-9.229-10.073V23.83h-4.03v-1.495
		c4.485-2.015,8.32-5.655,11.116-9.945h1.95L260.622,20.839L260.622,20.839z"/>
	<path fill="#231F20" d="M284.021,20.839h8.451v2.99h-8.451v21.517c0,3.965,1.495,5.653,4.551,5.653c1.819,0,3.25-0.584,4.875-1.819
		l0.779,1.17c-2.08,3.25-5.33,5.592-10.01,5.592c-5.33,0-9.229-2.797-9.229-10.073V23.83h-4.029v-1.495
		c4.483-2.015,8.318-5.655,11.115-9.945h1.949L284.021,20.839L284.021,20.839z"/>
	<path fill="#231F20" d="M308.525,50.285c0,2.275,1.039,2.666,4.028,2.859v2.146h-17.096v-2.146
		c2.989-0.193,4.029-0.584,4.029-2.859V10.894l-3.899-2.015V7.514l11.505-3.12h1.431v45.891H308.525z"/>
	<path fill="#231F20" d="M344.341,33.775v1.495h-21.189c-0.262,9.101,4.42,14.496,10.791,14.496c4.42,0,7.345-1.885,9.687-5.266
		l1.04,0.586c-1.69,6.434-6.436,10.855-13.911,10.855c-9.426,0-15.729-6.957-15.729-16.966c0-11.116,7.148-18.786,16.057-18.786
		C339.79,20.189,344.341,25.975,344.341,33.775z M323.28,32.865h13c0-6.11-1.625-10.271-5.853-10.271
		C326.14,22.594,323.8,26.884,323.28,32.865z"/>
	<path fill="#231F20" d="M363.319,10.894l-3.899-2.015V7.514l11.506-3.12h1.431V26.56c2.729-3.25,6.5-6.371,11.96-6.371
		c6.109,0,9.359,3.575,9.359,10.661v19.436c0,2.274,1.04,2.666,4.029,2.858v2.146h-17.03v-2.146
		c2.989-0.192,3.965-0.584,3.965-2.858v-18.98c0-3.77-1.495-5.655-5.068-5.655c-2.665,0-5.137,1.235-7.217,2.665v21.971
		c0,2.275,0.977,2.666,3.967,2.859v2.146h-17.031v-2.146c2.99-0.193,4.03-0.584,4.03-2.859L363.319,10.894L363.319,10.894z"/>
	<path fill="#231F20" d="M429.163,33.775v1.495h-21.188c-0.261,9.101,4.42,14.496,10.789,14.496c4.421,0,7.347-1.885,9.688-5.266
		l1.04,0.586c-1.688,6.434-6.438,10.855-13.91,10.855c-9.426,0-15.729-6.957-15.729-16.966c0-11.116,7.15-18.786,16.058-18.786
		C424.614,20.189,429.163,25.975,429.163,33.775z M408.104,32.865h13.002c0-6.11-1.625-10.271-5.854-10.271
		C410.964,22.594,408.623,26.884,408.104,32.865z"/>
	<path fill="#231F20" d="M444.698,50.285c0,2.275,1.041,2.666,4.027,2.859v2.146H431.63v-2.146c2.989-0.193,4.029-0.584,4.029-2.859
		V10.894l-3.899-2.015V7.514l11.506-3.12h1.433L444.698,50.285L444.698,50.285z"/>
	<path fill="#231F20" d="M454.576,27.274L450.678,25v-1.235l11.638-3.575h1.562l-0.261,6.11c2.146-3.25,5.721-6.11,10.921-6.11
		c7.931,0,12.937,5.786,12.937,15.796c0,12.741-7.671,19.958-17.354,19.958c-2.665,0-5.068-0.586-6.5-1.817v9.75
		c0,2.472,1.232,2.729,5.33,3.058v2.146h-18.396V66.93c2.99-0.195,4.028-0.584,4.028-2.859L454.576,27.274L454.576,27.274z
		 M478.367,39.17c0-7.995-2.924-13.521-9.035-13.521c-2.146,0-4.225,0.91-5.72,2.275v18.072c0,4.939,1.947,7.475,5.915,7.475
		C475.054,53.471,478.367,47.166,478.367,39.17z"/>
	<path fill="#231F20" d="M520.616,33.775v1.495h-21.189c-0.261,9.101,4.42,14.496,10.79,14.496c4.421,0,7.346-1.885,9.688-5.266
		l1.04,0.586c-1.688,6.434-6.438,10.855-13.909,10.855c-9.427,0-15.729-6.957-15.729-16.966c0-11.116,7.149-18.786,16.057-18.786
		C516.066,20.189,520.616,25.975,520.616,33.775z M499.557,32.865h13.001c0-6.11-1.625-10.271-5.853-10.271
		C502.416,22.594,500.076,26.884,499.557,32.865z"/>
	<path fill="#231F20" d="M536.41,49.766c0,2.664,1.495,3.055,5.522,3.379v2.146h-18.59v-2.146c3.059-0.189,4.097-0.584,4.097-2.855
		V27.274l-3.899-2.275v-1.235l11.637-3.575h1.495l-0.261,9.621c3.12-7.085,5.068-9.621,8.903-9.621c1.363,0,2.342,0.455,2.859,1.105
		v7.02h-1.234c-4.028,0-7.217,0.195-10.528,3.51L536.41,49.766L536.41,49.766z"/>
	<path fill="#231F20" d="M551.101,52.691l-0.39-8.906h2.404c1.431,5.654,4.745,9.881,9.75,9.881c3.511,0,6.177-1.691,6.177-5.266
		c0-3.51-2.405-4.875-7.541-6.695c-6.955-2.404-10.529-5.135-10.529-11.181c0-6.5,4.938-10.335,12.092-10.335
		c4.226,0,7.863,1.105,10.597,2.86v7.865h-2.212c-1.039-4.68-3.771-8.45-8.386-8.45c-3.313,0-5.268,1.95-5.268,4.745
		c0,2.99,2.018,4.42,7.021,6.24c7.085,2.47,11.181,5.135,11.181,11.505c0,6.955-5.199,10.985-13.194,10.985
		C557.861,55.941,553.767,54.641,551.101,52.691z"/>
</g>
</svg>
